#!OML:ASF H:\MichaelJackson\Top Level 1\Subject 1\Session 1\male.ASF
:FULLY-SPECIFIED
:DEGREES
42
root 18.6159 16.8133 -18.5678 5.61667 6.23692 -1.23332
lowerback 0.751105 5.21363 -0.346129
upperback -0.427852 7.00538 4.00572
thorax -1.40428 3.53529 4.14719
lowerneck -0.0922968 13.4418 6.85629
upperneck 6.37702 18.5541 -9.12914
head 3.41295 9.1728 -3.02725
rclavicle -5.86415e-014 0
rhumerus -62.0273 10.8482 -90.8134
rradius 84.2701
rwrist 33.9034
rhand 19.0592 -22.327
rfingers 7.12502
rthumb 43.6577 -46.3364
lclavicle -5.86415e-014 0
lhumerus -57.5785 -44.3579 125.252
lradius 71.5799
lwrist 7.33312
lhand 11.8576 21.7408
lfingers 7.12502
lthumb 36.886 47.8347
rfemur -16.9731 4.62712 23.8305
rtibia 32.2833
rfoot -26.0658 -23.8467
rtoes 15.1411
lfemur -33.065 8.81105 -16.2022
ltibia 54.45
lfoot -13.6639 -7.5803
ltoes 16.2139
43
root 18.625 16.8168 -18.5664 5.60409 6.13632 -1.15923
lowerback 0.705365 5.21821 -0.423114
upperback -0.440589 7.009 3.93126
thorax -1.39185 3.53716 4.11664
lowerneck -0.0796943 13.4744 6.88446
upperneck 6.55266 18.6037 -9.03143
head 3.4612 9.19749 -2.99431
rclavicle 1.2921e-015 -1.11319e-014
rhumerus -62.1237 10.7467 -90.801
rradius 84.7285
rwrist 33.7343
rhand 18.8905 -22.3615
rfingers 7.12502
rthumb 43.5002 -46.4283
lclavicle 1.2921e-015 -1.11319e-014
lhumerus -57.6988 -43.7795 124.914
lradius 72.2313
lwrist 7.51224
lhand 11.5243 22.2776
lfingers 7.12502
lthumb 36.5706 48.4518
rfemur -16.9394 4.52851 23.7131
rtibia 32.2454
rfoot -26.0371 -23.6788
rtoes 15.0863
lfemur -32.579 8.66771 -15.9318
ltibia 54.094
lfoot -13.7218 -6.04165
ltoes 15.5458
44
root 18.6348 16.8205 -18.5638 5.59613 6.04585 -1.08917
lowerback 0.651978 5.22245 -0.478882
upperback -0.461165 7.01225 3.84085
thorax -1.3786 3.53854 4.05844
lowerneck -0.0794382 13.5005 6.92047
upperneck 6.70497 18.6421 -8.93821
head 3.50463 9.21675 -2.96438
rclavicle 4.39314e-014 -3.18055e-015
rhumerus -62.2272 10.5847 -90.7795
rradius 85.1838
rwrist 33.5323
rhand 18.7379 -22.3577
rfingers 7.12502
rthumb 43.3576 -46.4761
lclavicle 4.39314e-014 -3.18055e-015
lhumerus -57.8472 -43.2502 124.589
lradius 72.8756
lwrist 7.70916
lhand 11.2409 22.7866
lfingers 7.12502
lthumb 36.3024 49.0282
rfemur -16.9015 4.42471 23.5989
rtibia 32.2019
rfoot -26.0192 -23.5182
rtoes 15.0284
lfemur -32.0577 8.48418 -15.653
ltibia 53.6577
lfoot -13.8219 -4.64868
ltoes 15.4794
45
root 18.6454 16.8242 -18.56 5.59404 5.96478 -1.02992
lowerback 0.587364 5.22812 -0.512772
upperback -0.490682 7.01764 3.74051
thorax -1.36454 3.54077 3.97869
lowerneck -0.0801664 13.5207 6.96346
upperneck 6.82921 18.6703 -8.85114
head 3.54016 9.23152 -2.93876
rclavicle 7.99114e-014 3.81667e-014
rhumerus -62.3426 10.3694 -90.7495
rradius 85.635
rwrist 33.2995
rhand 18.5655 -22.3443
rfingers 7.12502
rthumb 43.1965 -46.5204
lclavicle 7.99114e-014 3.81667e-014
lhumerus -58.0237 -42.7739 124.289
lradius 73.4975
lwrist 7.88361
lhand 11.0177 23.2714
lfingers 7.12502
lthumb 36.0909 49.5655
rfemur -16.8587 4.32698 23.4939
rtibia 32.145
rfoot -25.9991 -23.371
rtoes 14.969
lfemur -31.503 8.25305 -15.3536
ltibia 53.1489
lfoot -14.0068 -3.43483
ltoes 15.9782
46
root 18.6565 16.8278 -18.5549 5.59387 5.90518 -0.981614
lowerback 0.512405 5.23078 -0.530808
upperback -0.526992 7.01918 3.63609
thorax -1.34896 3.54095 3.88692
lowerneck -0.0602557 13.5345 7.01509
upperneck 6.90231 18.6883 -8.78465
head 3.55885 9.24237 -2.92423
rclavicle 1.27222e-013 2.70347e-014
rhumerus -62.4708 10.1105 -90.7077
rradius 86.0797
rwrist 33.0412
rhand 18.5005 -22.2757
rfingers 7.12502
rthumb 43.1357 -46.4735
lclavicle 1.27222e-013 2.70347e-014
lhumerus -58.2168 -42.3529 124.02
lradius 74.0793
lwrist 8.00415
lhand 10.8025 23.6464
lfingers 7.12502
lthumb 35.8871 49.9905
rfemur -16.802 4.24986 23.4
rtibia 32.0721
rfoot -25.9756 -23.262
rtoes 14.902
lfemur -30.9189 7.97113 -15.0347
ltibia 52.5721
lfoot -14.3123 -2.39242
ltoes 16.5359
47
root 18.6686 16.8318 -18.549 5.60709 5.83858 -0.953893
lowerback 0.421196 5.24248 -0.525615
upperback -0.573594 7.0331 3.5299
thorax -1.33278 3.54721 3.78138
lowerneck -0.0411449 13.5438 7.06823
upperneck 6.95485 18.6986 -8.72072
head 3.57123 9.24979 -2.91187
rclavicle -4.49253e-014 -2.8625e-014
rhumerus -62.6109 9.81288 -90.655
rradius 86.5102
rwrist 32.7647
rhand 18.5327 -22.1698
rfingers 7.12502
rthumb 43.1659 -46.3569
lclavicle -4.49253e-014 -2.8625e-014
lhumerus -58.4339 -41.9942 123.792
lradius 74.6176
lwrist 8.04359
lhand 10.5905 23.9819
lfingers 7.12502
lthumb 35.6862 50.3749
rfemur -16.7553 4.17096 23.3225
rtibia 31.9893
rfoot -25.9491 -23.1436
rtoes 14.8117
lfemur -30.3232 7.66563 -14.6962
ltibia 51.9322
lfoot -14.6409 -1.50068
ltoes 16.9417
48
root 18.6818 16.8356 -18.5423 5.61296 5.78479 -0.94171
lowerback 0.33337 5.25711 -0.494838
upperback -0.624728 7.05124 3.42113
thorax -1.31996 3.55535 3.65865
lowerneck -0.0255302 13.55 7.12153
upperneck 6.99451 18.7031 -8.65258
head 3.57942 9.25459 -2.899
rclavicle -8.20981e-014 -3.10104e-014
rhumerus -62.7649 9.48117 -90.5965
rradius 86.9203
rwrist 32.4825
rhand 18.6285 -22.0346
rfingers 7.12502
rthumb 43.2554 -46.1897
lclavicle -8.20981e-014 -3.10104e-014
lhumerus -58.6716 -41.6999 123.606
lradius 75.1063
lwrist 7.98608
lhand 10.3606 24.2073
lfingers 7.12502
lthumb 35.4683 50.6526
rfemur -16.697 4.09187 23.2587
rtibia 31.9076
rfoot -25.924 -23.0387
rtoes 14.6899
lfemur -29.6942 7.31607 -14.3408
ltibia 51.2294
lfoot -14.9673 -0.752688
ltoes 17.2018
